<?xml version="1.0" encoding="UTF-8"?>
<svg id="Layer_2" data-name="Layer 2" xmlns="http://www.w3.org/2000/svg" viewBox="0 0 271.47 272.28">
  <defs>
    <style>
      .cls-1 {
        fill: #fff;
      }

      .cls-2 {
        fill: none;
      }

      .cls-3 {
        fill: #be1414;
      }

      .cls-4 {
        opacity: 0;
      }
    </style>
  </defs>
  <g id="Layer_1-2" data-name="Layer 1-2">
    <path class="cls-2" d="M216.11,52.46H43.59C19.71,52.46.35,71.82.35,95.7v86.18c0,23.88,19.36,43.24,43.24,43.24h172.52c23.88,0,43.24-19.36,43.24-43.24v-86.18c0-23.88-19.36-43.24-43.24-43.24ZM224.35,173.25c0,9.32-7.56,16.88-16.88,16.88H52.23c-9.32,0-16.88-7.56-16.88-16.88v-68.91c0-9.32,7.56-16.88,16.88-16.88h155.24c9.32,0,16.88,7.56,16.88,16.88v68.91Z"/>
    <path d="M43.24,227.95c-3.4,0-6.72-.38-9.91-1.08-5.32,9.88-8.78,17.25-11.17,23.28-3.59,9.08-6.34,16.14-8.16,22.13,14.23-14.78,28.47-29.55,42.7-44.33h-13.46Z"/>
    <path class="cls-3" d="M92,49.28v-.24c0-4.23-3.43-7.65-7.65-7.65h-30.54c-4.23,0-7.65,3.43-7.65,7.65v.24h45.84Z"/>
    <g>
      <path d="M121.18,161.03c-3.13-.77-6.58-5.07-10.35-6.53-3.75-1.46-5.37-3.52-8.19-5.06-2.01,1.12-4.87,2.53-7.94,4.72-11.75,8.36-21.39,16.4-28.67,24.47h38.2l16.95-17.59h0Z"/>
      <path class="cls-3" d="M202.97,43.72c1.22,0,2.03.75,2.03,1.24v22.49l14.57,2.1c12.79,1.84,22.43,13.01,22.43,25.96v86.18c0,14.47-11.77,26.25-26.24,26.25H43.24c-14.47,0-26.24-11.78-26.24-26.25v-86.18c0-14.47,11.77-26.24,26.24-26.24h81.76v-24.32c0-.49.81-1.24,2.03-1.24h75.94M202.97,26.72h-75.94c-10.51,0-19.03,8.16-19.03,18.24v7.32H43.24C19.36,52.28,0,71.64,0,95.52v86.18c0,23.89,19.36,43.25,43.24,43.25h172.52c23.88,0,43.24-19.36,43.24-43.25v-86.18c0-21.76-16.07-39.77-37-42.79v-7.77c0-10.08-8.52-18.24-19.03-18.24h0Z"/>
      <path class="cls-3" d="M218.64,87.9c-.21.11-.44.2-.68.26l-6.9,1.7c-1.68.41-3.38-.61-3.79-2.29l-.48-1.96H48.81c-9.32,0-16.88,7.56-16.88,16.88v72.24c0,9.32,7.56,16.88,16.88,16.88h161.38c9.32,0,16.88-7.56,16.88-16.88v-72.24c0-6.24-3.39-11.67-8.43-14.59h0ZM217.07,174.74c0,3.79-3.09,6.88-6.88,6.88H48.81c-3.79,0-6.88-3.09-6.88-6.88v-72.24c0-3.79,3.09-6.88,6.88-6.88h161.38c3.79,0,6.88,3.09,6.88,6.88v72.24Z"/>
      <g>
        <path d="M268.13,60.64c-1,7.16-4.1,13.49-8.18,19.34-8.43,12.11-19.8,20.87-32.58,27.87-5.87,3.2-12.03,5.87-18.05,8.78-2.1,1.02-3.57.63-5.23-1.27-6.39-7.33-13.53-13.86-22.07-18.69-.89-.5-1.81-.93-2.93-1.51-.35,1.21-.67,2.3-.98,3.39-1.94,6.81-5.77,12.59-10.17,17.95-7.26,8.84-14.78,17.47-22.13,26.23-1.06,1.26-2.09,1.62-3.73,1.4-9.57-1.27-19.15-1.63-28.67.39-1.94.41-3.78,1.06-3.78,1.06-1.03.36-1.85.72-2.39.97,7.28-.81,18.14-1.25,30.94,1.3,1.25.26,4.48.92,8.77,2.18,0,0,22.47,6.55,49.16,30.68.49.44,1.57,1.47,2.37,3.1.27.54.91,1.83.92,3.37.02,1.7-.65,3.39-1.98,5.06-4.39,5.48-9.1,6.87-15.6,10.09-26.46,13.11-53.78,28.63-80.33,41.56-10.14,4.94-20.35,9.72-30.53,14.57-.52.24-1.05.45-1.71.47,25.62-28.27,55.96-50.85,87.74-72.76-4.69-.33-8.73-.47-12.73-.94-8.29-.98-16.72-1.49-24.81-3.38-9.85-2.31-17.18-8.45-20.83-18.22-2-5.37-2.49-11.06-.68-16.51,2.64-7.93,5.6-15.77,8.82-23.48,4.94-11.84,9.57-23.76,11.38-36.57.11-.78.17-1.56.31-2.91-5.13,1.26-9.99,2.22-14.7,3.66-17.65,5.37-33.59,13.78-48.4,24.16-5.93,4.16-11.69,8.62-17.3,13.34-4.68,3.93-9.31,7.91-14.4,11.66.22-.69.38-1.41.66-2.07,4.59-10.85,11.85-19.86,19.86-28.29l1.11-1.14c14.18-14.56,31.02-25.55,48.77-35.21,7.98-4.35,16.23-8.18,24.19-12.56,6.87-3.78,14.06-5.33,21.83-4.76,2.31.17,4.64-.08,6.97-.1,2.58-.02,4.61-1.19,6.32-3,1.99-2.09,3.95-4.23,5.47-5.86-3.25-4.12-6.58-7.8-9.28-11.89-3.95-5.99-2.99-11.93,2.19-16.97,4.11-4.02,9.18-6.39,14.53-8.16,7.79-2.57,15.84-3.79,24.04-3.97,3.98-.09,4.19,2.35,4.67,5.79.5,3.53.89,5.68-3.09,6.52l.85,9.01c1.56,2.85,3.09,5.46,4.39,8.18.34.71.26,2.01-.19,2.61-1.31,1.74-1.42,3.6-1.19,5.6.3,2.6.57,5.21.93,7.8.45,3.31-.98,5.85-4.35,6.04-4.02.22-8.11-.14-12.11-.71-2.11-.3-2.73.19-3.6,2.07-3.68,7.99-7.57,15.9-11.57,23.74-2.25,4.39-4.87,8.58-7.14,13.12,3.79-3.1,7.82-6.98,11.06-10.65,5.22-5.91,8.72-10.54,13.53-17.21,1.51-2.1,5.18-1.68,6.57.49,4.55,7.11,12.79,15.12,17.45,22.15,2.02,3.05,3.26,3.31,6.79,2.44,17.34-4.31,31.64-13.69,43.84-26.48,3.06-3.21,5.7-6.82,8.52-10.25.5-.6.97-1.22,1.67-2.12,1.37,3.34,1.22,6.43.79,9.5h0Z"/>
        <g class="cls-4">
          <path class="cls-1" d="M190.52,3c3.78,0,3.99,2.41,4.46,5.79.5,3.53.89,5.68-3.09,6.52l.85,9.01c1.56,2.85,3.09,5.46,4.39,8.18.34.71.26,2.01-.19,2.61-1.31,1.74-1.42,3.6-1.19,5.6.3,2.6.57,5.21.93,7.8.45,3.31-.98,5.85-4.35,6.04-.82.04-1.63.07-2.45.07-3.22,0-6.47-.32-9.66-.78-.38-.05-.7-.08-.99-.08-1.34,0-1.89.61-2.61,2.15-3.68,7.99-7.57,15.9-11.57,23.74-2.25,4.39-4.87,8.58-7.14,13.12,3.79-3.1,7.82-6.98,11.06-10.65,5.22-5.91,8.72-10.54,13.53-17.21.68-.94,1.78-1.37,2.92-1.37,1.41,0,2.88.66,3.65,1.86,4.55,7.11,12.79,15.12,17.45,22.15,1.39,2.1,2.41,2.87,4.05,2.87.75,0,1.63-.16,2.74-.43,17.34-4.31,31.64-13.69,43.84-26.48,3.06-3.21,5.7-6.82,8.52-10.25.5-.6.97-1.22,1.67-2.12,1.37,3.34,1.22,6.43.79,9.5-1,7.16-4.1,13.49-8.18,19.34-8.43,12.11-19.8,20.87-32.58,27.87-5.87,3.2-12.03,5.87-18.05,8.78-.75.36-1.42.55-2.05.55-1.13,0-2.12-.6-3.18-1.82-6.39-7.33-13.53-13.86-22.07-18.69-.89-.5-1.81-.93-2.93-1.51-.35,1.21-.67,2.3-.98,3.39-1.94,6.81-5.77,12.59-10.17,17.95-7.26,8.84-14.78,17.47-22.13,26.23-.87,1.03-1.72,1.46-2.9,1.46-.26,0-.54-.02-.83-.06-4.76-.63-9.53-1.04-14.29-1.04s-9.6.41-14.38,1.43c-1.94.41-3.78,1.06-3.78,1.06-1.03.36-1.85.72-2.39.97,3.15-.35,6.97-.63,11.32-.63,5.72,0,12.35.48,19.62,1.93,1.25.26,4.48.92,8.77,2.18,0,0,22.47,6.55,49.16,30.68.49.44,1.57,1.47,2.37,3.1.27.54.91,1.83.92,3.37.02,1.7-.65,3.39-1.98,5.06-4.39,5.48-9.1,6.87-15.6,10.09-26.46,13.11-53.78,28.63-80.33,41.56-10.14,4.94-20.35,9.72-30.53,14.57-.52.24-1.05.45-1.71.47,25.62-28.27,55.96-50.85,87.74-72.76-4.69-.33-8.73-.47-12.73-.94-8.29-.98-16.72-1.49-24.81-3.38-9.85-2.31-17.18-8.45-20.83-18.22-2-5.37-2.49-11.06-.68-16.51,2.64-7.93,5.6-15.77,8.82-23.48,4.94-11.84,9.57-23.76,11.38-36.57.11-.78.17-1.56.31-2.91-5.13,1.26-9.99,2.22-14.7,3.66-17.65,5.37-33.59,13.78-48.4,24.16-5.93,4.16-11.69,8.62-17.3,13.34-4.68,3.93-9.31,7.91-14.4,11.66.22-.69.38-1.41.66-2.07,4.59-10.85,11.85-19.86,19.86-28.29.37-.38.74-.76,1.11-1.14,14.18-14.56,31.02-25.55,48.77-35.21,7.98-4.35,16.23-8.18,24.19-12.56,5.95-3.27,12.14-4.87,18.74-4.87,1.02,0,2.05.04,3.09.11.58.04,1.16.06,1.74.06,1.74,0,3.48-.14,5.23-.16,2.58-.02,4.61-1.19,6.32-3,1.99-2.09,3.95-4.23,5.47-5.86-3.25-4.12-6.58-7.8-9.28-11.89-3.95-5.99-2.99-11.93,2.19-16.97,4.11-4.02,9.18-6.39,14.53-8.16,7.79-2.57,15.84-3.79,24.04-3.97h.21M190.52,0h-.28c-8.83.19-17.21,1.58-24.91,4.12-4.3,1.42-10.6,3.89-15.69,8.86-6.3,6.13-7.25,13.71-2.6,20.77,1.94,2.94,4.11,5.58,6.41,8.37.47.57.94,1.14,1.41,1.73-1.14,1.23-2.41,2.6-3.68,3.93-1.34,1.42-2.63,2.06-4.17,2.07-.88,0-1.75.05-2.58.08-.91.04-1.77.08-2.62.08-.56,0-1.06-.02-1.52-.05-1.11-.08-2.23-.12-3.31-.12-7.17,0-13.77,1.72-20.18,5.25-4.05,2.23-8.27,4.36-12.36,6.43-3.89,1.96-7.91,4-11.82,6.13-21.29,11.59-37.01,22.95-49.48,35.75l-1.11,1.14c-6.82,7.18-15.29,16.96-20.47,29.21-.26.61-.43,1.2-.57,1.72-.06.2-.12.41-.18.61l-2.81,8.81,7.45-5.49c4.51-3.32,8.69-6.84,12.73-10.25l1.82-1.53c5.65-4.75,11.4-9.19,17.09-13.18,15.74-11.03,31.3-18.8,47.55-23.75,3.13-.96,6.33-1.7,9.72-2.48.2-.05.41-.09.62-.14-1.92,12.1-6.46,23.62-10.97,34.42-3.31,7.92-6.3,15.89-8.9,23.69-1.9,5.74-1.66,12.13.72,18.5,3.94,10.55,11.88,17.5,22.96,20.09,6.21,1.45,12.63,2.11,18.82,2.75,2.08.21,4.23.44,6.32.68,1.43.17,2.85.29,4.3.4-11.81,8.25-25.81,18.34-39.28,29.22-16.25,13.12-29.95,25.9-41.9,39.08l-4.74,5.23,7.05-.21c1.19-.04,2.12-.4,2.88-.74,3.12-1.49,6.21-2.95,9.31-4.42,6.98-3.31,14.2-6.73,21.28-10.18,14.05-6.84,28.52-14.52,42.51-21.94,12.47-6.62,25.37-13.46,37.84-19.63,1.2-.6,2.35-1.13,3.46-1.65,4.91-2.29,9.16-4.27,13.15-9.25,1.78-2.24,2.67-4.58,2.64-6.97,0-2.23-.9-4.01-1.24-4.68-.73-1.48-1.76-2.83-3.05-3.99-26.88-24.31-49.38-31.05-50.32-31.33-.71-.21-1.4-.4-2.05-.58.86-.42,1.65-1.05,2.37-1.91,2.86-3.41,5.8-6.86,8.64-10.2,4.46-5.23,9.07-10.65,13.51-16.06,5.59-6.81,8.89-12.64,10.7-18.89,7.21,4.15,14.05,9.98,20.87,17.82.62.71,2.49,2.85,5.44,2.85,1.08,0,2.18-.28,3.36-.85,1.87-.9,3.8-1.81,5.67-2.68,4.13-1.93,8.4-3.93,12.51-6.16,14.75-8.08,25.75-17.5,33.61-28.79,4.88-7,7.73-13.76,8.69-20.64.47-3.35.67-7.01-.99-11.05l-1.96-4.79-3.18,4.09-.44.57c-.45.58-.81,1.05-1.16,1.47-.89,1.08-1.75,2.17-2.59,3.22-1.94,2.44-3.76,4.74-5.8,6.88-12.71,13.32-26.57,21.71-42.39,25.64-.6.15-1.46.35-2.01.35-.27,0-.54,0-1.55-1.53-2.36-3.56-5.57-7.33-8.68-10.98-3.2-3.75-6.51-7.64-8.74-11.13-1.28-2-3.65-3.25-6.17-3.25-2.21,0-4.16.96-5.36,2.62-3.66,5.07-6.49,8.86-9.82,12.87,3.37-6.71,6.36-12.92,9.1-18.86.07-.16.14-.29.19-.39.07,0,.16.02.26.03,3.85.55,7.06.81,10.08.81.89,0,1.77-.02,2.62-.07,2.91-.16,4.61-1.52,5.53-2.63,1.42-1.72,2-4.14,1.63-6.81-.26-1.91-.49-3.87-.7-5.76-.07-.66-.15-1.32-.22-1.98-.19-1.67-.03-2.61.61-3.45,1.11-1.48,1.33-3.98.5-5.71-1-2.09-2.09-4.06-3.26-6.14-.3-.54-.61-1.09-.91-1.64l-.57-6.06c3.84-2.01,3.28-6,2.88-8.78l-.03-.21-.04-.31c-.44-3.21-1.12-8.06-7.39-8.06h-.06Z"/>
        </g>
      </g>
    </g>
  </g>
</svg>